<?xml version="1.0" encoding="UTF-8" standalone="no"?>
<!-- Created with Inkscape (http://www.inkscape.org/) -->

<svg
   version="1.1"
   id="svg2"
   width="6240"
   height="4160"
   viewBox="0 0 6240 4160"
   sodipodi:docname="hd_m344_08.svg"
   inkscape:version="1.2.2 (b0a8486, 2022-12-01)"
   xmlns:inkscape="http://www.inkscape.org/namespaces/inkscape"
   xmlns:sodipodi="http://sodipodi.sourceforge.net/DTD/sodipodi-0.dtd"
   xmlns="http://www.w3.org/2000/svg"
   xmlns:svg="http://www.w3.org/2000/svg">
  <defs
     id="defs6">
    <clipPath
       clipPathUnits="userSpaceOnUse"
       id="clipPath68">
      <path
         d="M 17487.1,5791.3 H 29933.4 V 8022.5 H 17487.1 Z"
         id="path66" />
    </clipPath>
    <clipPath
       clipPathUnits="userSpaceOnUse"
       id="clipPath102">
      <path
         d="m 21657.8,6972.1 h 3729.5 v 588.398 h -3729.5 z"
         id="path100" />
    </clipPath>
    <clipPath
       clipPathUnits="userSpaceOnUse"
       id="clipPath120">
      <path
         d="m 21188.9,5704.7 h 4531.9 v 686.301 h -4531.9 z"
         id="path118" />
    </clipPath>
    <clipPath
       clipPathUnits="userSpaceOnUse"
       id="clipPath146">
      <path
         d="m 18625.1,9070.9 h 2096.8 v 1863.8 h -2096.8 z"
         id="path144" />
    </clipPath>
    <clipPath
       clipPathUnits="userSpaceOnUse"
       id="clipPath164">
      <path
         d="m 26510.4,9070.9 h 2096.8 v 1863.8 h -2096.8 z"
         id="path162" />
    </clipPath>
    <clipPath
       clipPathUnits="userSpaceOnUse"
       id="clipPath274">
      <path
         d="m 30206.5,15047.1 v 0 c -417.1,405.9 -707.6,860.6 -909.2,1325.6 l 2993.6,3870.8 c 338.1,-215.5 870.4,-494.8 1469.9,-601 l -980.9,-1268.2 v 64.6 c 0,406.7 -332.8,739.5 -739.6,739.5 h -150.6 c -406.8,0 -739.6,-332.8 -739.6,-739.5 v -630 h -109.5 c -67.8,0 -123.3,-55.5 -123.3,-123.3 v -1719.4 l -710.8,-919.1 m 2136.1,2761.8 h -943.2 l -2.8,719 c 0,173.2 189.7,431.4 363,431.4 h 362.9 c 239.7,0 417.7,-265 417.7,-438.2 v -456.7 l -197.6,-255.5"
         id="path272" />
    </clipPath>
  </defs>
  <sodipodi:namedview
     id="namedview4"
     pagecolor="#ffffff"
     bordercolor="#000000"
     borderopacity="0.25"
     inkscape:showpageshadow="2"
     inkscape:pageopacity="0.0"
     inkscape:pagecheckerboard="0"
     inkscape:deskcolor="#d1d1d1"
     showgrid="false"
     inkscape:zoom="0.056730769"
     inkscape:cx="3128.8136"
     inkscape:cy="2080"
     inkscape:window-width="1440"
     inkscape:window-height="806"
     inkscape:window-x="0"
     inkscape:window-y="25"
     inkscape:window-maximized="1"
     inkscape:current-layer="g10">
    <inkscape:page
       x="0"
       y="0"
       id="page8"
       width="6240"
       height="4160" />
  </sodipodi:namedview>
  <g
     id="g10"
     inkscape:groupmode="layer"
     inkscape:label="Page 1"
     transform="matrix(1.3333333,0,0,-1.3333333,0,4160)">
    <g
       id="g12"
       transform="scale(0.1)">
      <path
         d="M 46800,0 H 0 V 31200 H 46800 V 0 M 15768.2,21701.1 13235.9,20236.7 c -2486.1,-1437.8 -3489.47,-4517.8 -2327.3,-7144 l 1238,-2797.5 c 888.2,-2007.2 2863,-3314.1 5057.6,-3347.3 l 12410.5,-187.6 c 28.5,-0.5 56.9,-0.7 85.3,-0.7 1962.9,0 3786.6,1024.3 4807.2,2705.9 l 1049.8,1729.8 c 1203.6,1983 1058.4,4481.9 -317.6,6304.4 180.3,1121.3 51.8,2135.5 51.8,2609.1 -281.5,-94.7 -561.2,-134.3 -832.1,-134.3 -342.5,0 -670.9,63.3 -971.5,158.9 -85.3,246.3 -153.6,499.2 -204.2,756.8 -264.9,1349.6 -1009.2,2533.5 -2064.1,3354.8 0.2,11.6 0.3,23.3 0.3,34.9 0,1185 -960.7,2145.7 -2145.8,2145.7 -507,0 -972.9,-175.8 -1340.1,-469.8 -1095,609.7 -2335.2,982.3 -3654.1,1050 v 474.2 c 0,66 -54,120 -120,120 H 23568 c -66,0 -120,-54 -120,-120 v -465.2 c -1213.7,-27.6 -2365.1,-313.2 -3403.4,-805 -239.5,92.3 -499.7,143 -771.7,143 -1185,0 -2145.7,-960.7 -2145.7,-2145.8 0,-83.2 4.7,-165.3 13.9,-246.1 -563.8,-672.5 -1029,-1433.5 -1372.9,-2259.8"
         style="fill:#ffffff;fill-opacity:1;fill-rule:nonzero;stroke:none"
         id="path14" />
      <path
         d="m 13235.9,20236.7 9230.5,5338 c 1437.5,831.3 3169,984.8 4730.3,419.4 l 2483.3,-899.4 c 1855.7,-672.1 3223.3,-2267.8 3603.4,-4204.5 199.5,-1016.3 675.7,-1957.9 1376.2,-2720.7 l 232.1,-252.7 c 1692.4,-1843 1963.6,-4582.5 665.3,-6721.5 L 34507.2,9465.5 C 33471.8,7759.6 31609.9,6730.1 29614.7,6760.3 l -12410.5,187.6 c -2194.6,33.2 -4169.4,1340.1 -5057.6,3347.3 l -1238,2797.5 c -1162.17,2626.2 -158.8,5706.2 2327.3,7144"
         style="fill:#eef8f8;fill-opacity:1;fill-rule:nonzero;stroke:none"
         id="path16" />
      <path
         d="M 23959.6,15843.1 H 23568 c -66,0 -120,54 -120,120 V 27480 c 0,66 54,120 120,120 h 391.6 c 66,0 120,-54 120,-120 V 15963.1 c 0,-66 -54,-120 -120,-120"
         style="fill:#e29437;fill-opacity:1;fill-rule:nonzero;stroke:none"
         id="path18" />
      <path
         d="m 15723.4,18903.8 c 670.2,0 1260,-408.9 1603.2,-1028.3 343.2,619.4 933.1,1028.3 1603.3,1028.3 670.1,0 1260,-408.9 1603.2,-1028.3 343.2,619.4 933,1028.3 1603.2,1028.3 670.2,0 1260,-408.9 1603.2,-1028.3 343.2,619.4 933,1028.3 1603.2,1028.3 670.2,0 1260,-408.9 1603.2,-1028.3 343.2,619.4 933,1028.3 1603.2,1028.3 670.2,0 1260,-408.9 1603.2,-1028.3 343.2,619.4 933.1,1028.3 1603.2,1028.3 144.4,0 285.1,-19.1 420.4,-55.1 -279.4,4558.9 -3993.1,8168.3 -8533.6,8168.3 -4562.3,0 -8289.9,-3644.3 -8537.2,-8234.4 194,78.6 402,121.2 618.3,121.2"
         style="fill:#ffba5f;fill-opacity:1;fill-rule:nonzero;stroke:none"
         id="path20" />
      <path
         d="m 17326.6,17875.5 c 7.2,243.5 32,486.2 63.5,727.7 32,241.6 72.7,482 120.6,720.9 97.6,477.6 224.6,949.3 381,1411.2 155.4,462.3 342.7,913.8 557.9,1351.6 19,38.5 38.1,76.8 57.5,115.1 11.5,-4.4 23.1,-8.7 34.6,-12.9 -20,-39.3 -39.8,-78.8 -59.4,-118.3 -107.8,-217.9 -208.6,-439.3 -302.1,-663.7 l -68.7,-169 -66,-170 c -21.7,-56.8 -42.4,-113.9 -63.7,-170.9 -20.9,-57.1 -40.6,-114.6 -61,-171.8 -159.5,-459.6 -289.5,-929.3 -390.9,-1405.3 -50.8,-237.9 -94.4,-477.5 -129.3,-718.3 -17.3,-120.5 -32.6,-241.3 -45.3,-362.3 -12.8,-121 -23.5,-242.3 -28.7,-364 v 0 m 3734.2,7518.3 c -6,9 -12.1,18 -18.2,26.9 34.9,29.3 70,58.4 105.2,87.2 l 143.3,113.8 71.6,56.7 73.1,55 146.3,109.7 149.1,105.9 74.6,52.9 c 25,17.5 50.6,34 75.8,51.1 l 152,101.6 c 50.9,33.5 102.9,65.3 154.4,98 51.7,32.2 102.5,65.9 155.4,96.1 105.1,61.7 209.3,125 316.6,182.7 53.4,29.4 106.4,59.4 160.1,88.3 l 162.2,84.2 81,42 c 27,14.1 54.7,26.8 82,40.3 l 164.4,79.7 41.2,19.9 c 13.7,6.5 27.7,12.5 41.5,18.8 l 83.3,37.5 166.6,74.9 v 0 l -165.3,-77.6 -82.6,-38.8 c -13.8,-6.6 -27.6,-12.8 -41.3,-19.6 l -40.8,-20.5 -163.2,-81.7 c -27.2,-13.8 -54.7,-26.8 -81.5,-41.2 l -80.5,-43.1 -160.9,-86.1 c -53.2,-29.5 -105.9,-60 -158.8,-90 -106.4,-59 -209.7,-123.4 -313.8,-186.3 -52.4,-30.9 -103,-64.7 -154.4,-97.3 -51,-33 -102.7,-65.1 -153.3,-98.9 l -150.8,-102.6 c -25.1,-17.2 -50.5,-33.9 -75.3,-51.5 l -74,-53.3 -147.9,-106.7 -145.2,-110.5 -72.4,-55.4 -71.1,-57.2 -141.9,-114.5 -106.5,-90.4"
         style="fill:#ffe7c7;fill-opacity:1;fill-rule:nonzero;stroke:none"
         id="path22" />
      <path
         d="m 20533.1,17875.5 c 4.3,206.9 16.1,413.6 30.7,620 14.7,206.5 32.9,412.7 54,618.6 43,411.8 98.8,822.3 166,1230.9 135.7,817 321.3,1626.4 567.8,2417.7 15.8,49.3 30.9,98.8 47.3,148 l 48.9,147.5 c 33.9,97.9 67.1,196 103,293.2 34.7,97.6 72.2,194.2 108.9,291.1 38.4,96.2 76,192.8 116.4,288.1 19.9,47.9 39.7,95.8 60.7,143.1 l 62.3,142.4 64.6,141.3 c 10.6,23.7 21.7,47.1 33,70.4 l 33.6,70.1 33.6,70.1 34.8,69.5 c 23.4,46.2 46,92.8 70.2,138.6 l 73,137.3 c 24.2,45.7 50.2,90.6 75.2,136 101.9,180.4 208.1,358.5 322.6,531.3 14.2,21.6 27.9,43.6 42.6,64.9 l 43.9,64.2 c 29.5,42.5 58,85.9 88.8,127.5 l 91.1,125.9 94.3,123.5 c 31.1,41.4 64.7,80.9 97.1,121.3 l 49,60.3 c 16.3,20.1 33.6,39.4 50.4,59.1 34,39 67.2,78.8 101.8,117.3 l 104.9,114.6 c 17.2,19.3 35.6,37.5 53.6,56.2 l 54.1,55.6 c 18.2,18.5 35.9,37.3 54.4,55.5 l 55.9,53.8 56,53.8 c 9.4,8.9 18.5,18 28.1,26.7 l 28.9,26 9.6,8.6 2,-1.9 -9.6,-8.9 -28.3,-26.5 c -9.4,-8.9 -18.4,-18.2 -27.6,-27.3 l -54.9,-54.8 -55,-54.6 c -18.2,-18.4 -35.6,-37.5 -53.5,-56.2 l -53.2,-56.3 c -17.7,-18.9 -35.8,-37.3 -52.7,-56.9 l -103,-115.9 c -34.1,-38.9 -66.6,-79.1 -99.9,-118.5 -16.5,-20 -33.5,-39.4 -49.5,-59.7 l -48,-60.9 c -31.7,-40.7 -64.6,-80.5 -95,-122.4 l -92.9,-124 -89.7,-126.4 c -30.4,-41.8 -58.4,-85.2 -87.4,-128 l -43.2,-64.2 c -14.5,-21.4 -27.9,-43.5 -42,-65.2 -112.6,-173.2 -216.9,-351.7 -316.8,-532.5 -100.1,-180.7 -193.2,-365.2 -282.5,-551.5 l -33.3,-69.9 c -11.2,-23.3 -22.2,-46.7 -32.7,-70.2 l -63.9,-141.2 -61.8,-142.1 c -20.8,-47.3 -40.4,-95.1 -60,-142.8 -40.1,-95.3 -77.3,-191.6 -115.3,-287.7 -36.3,-96.7 -73.4,-193.1 -107.8,-290.6 -35.5,-97 -68.3,-195 -101.8,-292.7 l -48.3,-147.3 c -16.3,-49 -31.1,-98.5 -46.9,-147.7 -124.6,-394.1 -232.5,-793.4 -328.2,-1195.5 -95,-402.4 -175.9,-808 -247.5,-1215.3 -70.7,-407.4 -129.8,-817 -176.8,-1227.9 -48,-410.8 -85.1,-823.1 -104.1,-1236.5 v 0 m 3215.1,9020 -2,1.8 103.8,93.3 -101.8,-95.1"
         style="fill:#ffe7c7;fill-opacity:1;fill-rule:nonzero;stroke:none"
         id="path24" />
      <path
         d="m 23856,27014.4 c -0.3,0 0,0 -0.3,0 l -5.7,2.6 6,-2.6"
         style="fill:#f5dab9;fill-opacity:1;fill-rule:nonzero;stroke:none"
         id="path26" />
      <path
         d="m 29795.4,20005 c -66.8,242.5 -141.4,482.8 -223.8,720.4 -20.4,57.2 -40.1,114.7 -61,171.8 -21.3,57 -42.1,114.1 -63.7,170.9 l -66,170 -68.7,169 c -93.5,224.4 -194.3,445.8 -302.1,663.7 -10.9,21.9 -21.8,43.7 -32.7,65.5 13.8,-0.6 27.7,-1.1 41.6,-1.4 7.9,-16 15.8,-32 23.7,-48 215.2,-437.8 402.6,-889.3 558,-1351.6 81.2,-239.8 154.4,-482.1 219.7,-726.6 -8.3,-1.3 -16.7,-2.5 -25,-3.7 m -2786.8,4859 c -2.8,2.8 -5.5,5.5 -8.2,8.2 l -64.9,64.1 c -10.8,10.6 -21.5,21.4 -32.5,32 l -33.2,31.1 -133,124.8 c -21.9,21.1 -45,40.8 -67.6,61.1 l -68,60.8 -67.9,60.8 c -22.6,20.3 -46.2,39.5 -69.2,59.3 l -139,118 -142,114.5 -71,57.2 -72.5,55.4 -145.1,110.5 -147.9,106.7 -74,53.3 c -24.8,17.6 -50.2,34.3 -75.3,51.5 l -150.9,102.6 c -50.5,33.8 -102.2,65.9 -153.2,98.9 -51.4,32.6 -102,66.4 -154.4,97.3 -104.1,62.9 -207.4,127.3 -313.8,186.3 -53,30 -105.6,60.5 -158.8,90 l -161,86.1 -80.5,43.1 c -26.8,14.4 -54.3,27.4 -81.4,41.2 l -163.3,81.7 -40.7,20.5 c -13.7,6.8 -27.6,13 -41.3,19.6 l -82.6,38.8 -159.7,75 c 0.3,0 0,0 0.3,0 l 160.6,-72.3 83.3,-37.5 c 13.9,-6.3 27.9,-12.3 41.6,-18.8 l 41.2,-19.9 164.3,-79.7 c 27.3,-13.5 55,-26.2 82,-40.3 l 81.1,-42 162.2,-84.2 c 53.6,-28.9 106.7,-58.9 160,-88.3 107.4,-57.7 211.6,-121 316.6,-182.7 53,-30.2 103.8,-63.9 155.5,-96.1 51.4,-32.7 103.5,-64.5 154.4,-98 l 151.9,-101.6 c 25.3,-17.1 50.9,-33.6 75.8,-51.1 l 74.6,-52.9 149.1,-105.9 146.4,-109.7 73,-55 71.7,-56.7 143.2,-113.8 c 234.3,-191.3 459.6,-393.4 675.4,-605.4 -3.9,-12.8 -7.7,-25.6 -11.3,-38.5"
         style="fill:#ffe7c7;fill-opacity:1;fill-rule:nonzero;stroke:none"
         id="path28" />
      <path
         d="m 26959.3,17875.5 c -0.3,7.3 -0.7,14.7 -1,22 0.1,0.3 0.3,0.6 0.5,0.9 0.2,-7.6 0.3,-15.3 0.5,-22.9"
         style="fill:#f9fdfd;fill-opacity:1;fill-rule:nonzero;stroke:none"
         id="path30" />
      <path
         d="m 26958.3,17897.5 c -19.3,406.1 -56,811 -103.1,1214.5 -47,410.9 -106.1,820.5 -176.8,1227.9 -71.6,407.3 -152.5,812.9 -247.6,1215.3 -95.6,402.1 -203.5,801.4 -328.2,1195.5 -15.7,49.2 -30.5,98.7 -46.8,147.7 l -48.3,147.3 c -33.5,97.7 -66.4,195.7 -101.9,292.7 -34.3,97.5 -71.4,193.9 -107.7,290.6 -38,96.1 -75.2,192.4 -115.3,287.7 -19.6,47.7 -39.2,95.5 -60.1,142.8 l -61.7,142.1 -64,141.2 c -10.5,23.5 -21.5,46.9 -32.6,70.2 l -33.3,69.9 c -89.3,186.3 -182.5,370.8 -282.6,551.5 -99.9,180.8 -204.1,359.3 -316.8,532.5 -14,21.7 -27.4,43.8 -41.9,65.2 l -43.2,64.2 c -29.1,42.8 -57,86.2 -87.4,128 l -89.7,126.4 -92.9,124 c -30.4,41.9 -63.3,81.7 -95,122.4 l -48.1,60.9 c -15.9,20.3 -33,39.7 -49.4,59.7 -33.3,39.4 -65.9,79.6 -99.9,118.5 l -103,115.9 c -16.9,19.6 -35,38 -52.7,56.9 l -53.2,56.3 c -17.9,18.7 -35.3,37.8 -53.5,56.2 l -55,54.6 -54.9,54.8 c -9.3,9.1 -18.3,18.4 -27.6,27.3 l -28.4,26.5 -9.5,8.9 2,1.9 9.6,-8.6 28.9,-26 c 9.5,-8.7 18.7,-17.8 28.1,-26.7 l 56,-53.8 55.9,-53.8 c 18.5,-18.2 36.2,-37 54.4,-55.5 l 54.1,-55.6 c 18,-18.7 36.4,-36.9 53.6,-56.2 l 104.8,-114.6 c 34.7,-38.5 67.9,-78.3 101.9,-117.3 16.7,-19.7 34.1,-39 50.4,-59.1 l 49,-60.3 c 32.4,-40.4 66,-79.9 97,-121.3 l 94.4,-123.5 91.1,-125.9 c 30.8,-41.6 59.2,-85 88.7,-127.5 l 44,-64.2 c 14.7,-21.3 28.4,-43.3 42.6,-64.9 114.5,-172.8 220.7,-350.9 322.5,-531.3 25.1,-45.4 51,-90.3 75.3,-136 l 73,-137.3 c 24.1,-45.8 46.7,-92.4 70.2,-138.6 l 34.8,-69.5 33.6,-70.1 33.6,-70.1 c 11.3,-23.3 22.3,-46.7 32.9,-70.4 l 64.6,-141.3 62.4,-142.4 c 21,-47.3 40.8,-95.2 60.6,-143.1 40.5,-95.3 78.1,-191.9 116.5,-288.1 36.7,-96.9 74.2,-193.5 108.9,-291.1 35.9,-97.2 69.1,-195.3 103,-293.2 l 48.8,-147.5 c 16.5,-49.2 31.6,-98.7 47.4,-148 246.5,-791.3 432.1,-1600.7 567.8,-2417.7 67.1,-408.6 122.9,-819.1 166,-1230.9 21.1,-205.9 39.3,-412.1 54,-618.6 14,-198.8 25.5,-397.8 30.2,-597.1 -0.2,-0.3 -0.4,-0.6 -0.5,-0.9 m -3214.1,8998 -101.9,95.1 103.9,-93.3 -2,-1.8"
         style="fill:#ffe7c7;fill-opacity:1;fill-rule:nonzero;stroke:none"
         id="path32" />
      <path
         d="m 23746.2,26893.6 -2,1.9 2,1.8 2,-1.8 -2,-1.9"
         style="fill:#fff7eb;fill-opacity:1;fill-rule:nonzero;stroke:none"
         id="path34" />
      <path
         d="m 31994.3,3617.3 c -138.9,2703.5 -3887.6,4870 -8492.2,4870 -4604.6,0 -8353.3,-2166.5 -8492.2,-4870 h 16984.4"
         style="fill:#c0ded3;fill-opacity:1;fill-rule:nonzero;stroke:none"
         id="path36" />
      <path
         d="m 21602.5,5655.1 c 0,0 -1416.1,-1398.9 -1847.9,-2055.1 2141.5,0 5267.2,0 5267.2,0 0,0 120.9,1467.9 345.4,2003.3 224.5,535.3 -3764.7,51.8 -3764.7,51.8"
         style="fill:#eef8f8;fill-opacity:1;fill-rule:nonzero;stroke:none"
         id="path38" />
      <path
         d="m 30121.6,16732.2 -198.4,-1236 -285.5,-1774.8 -1935.5,1048.4 139.2,1999.5 22.1,312.4 2258.1,-349.5"
         style="fill:#6da090;fill-opacity:1;fill-rule:nonzero;stroke:none"
         id="path40" />
      <path
         d="m 30121.6,16732.2 -198.4,-1236 -2081.8,1273.1 22.1,312.4 2258.1,-349.5"
         style="fill:#7fb9a0;fill-opacity:1;fill-rule:nonzero;stroke:none"
         id="path42" />
      <path
         d="m 30436.9,16285.9 -2845.6,419.4 145,983.9 2845.6,-419.3 -145,-984"
         style="fill:#6da090;fill-opacity:1;fill-rule:nonzero;stroke:none"
         id="path44" />
      <path
         d="M 29960.3,13156.9 V 8183.8 l -12607.6,-26.9 v 5134.4 l 6344.1,3871 6263.5,-4005.4"
         style="fill:#c0ded3;fill-opacity:1;fill-rule:nonzero;stroke:none"
         id="path46" />
      <path
         d="m 19613.8,12040.9 -8.7,287.8 c -2.6,94.4 -5.9,187.8 -7.5,280.5 l 16.2,-16.2 c -117.4,-2.4 -234.7,-4.8 -352.1,-6.2 -117.3,-1.8 -234.7,-3.4 -352.1,-4.2 -117.3,-0.9 -234.7,-2.4 -352.1,-2.4 l -352,-1 29.9,30 -0.8,-284.1 c -0.2,-94.7 -0.4,-189.4 -1.5,-284.2 l -27.6,27.7 c 115.7,-1.2 231.4,-1.7 347.5,-3.8 116.2,-2.1 232.3,-3.6 349.4,-6.5 l 353.1,-8.2 358.3,-9.2 m 0,0 -345.8,-9.1 -351.2,-8.3 c -117.6,-2.9 -236.2,-4.3 -354.7,-6.4 -118.6,-2.1 -237.7,-2.7 -356.6,-3.9 l -27.5,-0.2 -0.2,27.9 c -1.1,94.8 -1.3,189.5 -1.5,284.2 l -0.8,284.1 -0.1,30.1 30.1,-0.1 352,-1 c 117.4,0 234.8,-1.5 352.1,-2.4 117.4,-0.7 234.8,-2.4 352.1,-4.1 117.4,-1.4 234.7,-3.9 352.1,-6.2 l 16.5,-0.4 -0.2,-15.9 c -1.7,-96.7 -5,-192.7 -7.6,-287.7 l -8.7,-280.6"
         style="fill:#99bfaf;fill-opacity:1;fill-rule:nonzero;stroke:none"
         id="path48" />
      <path
         d="m 26161.4,13745.8 -8.7,287.7 c -2.6,94.5 -5.8,187.8 -7.5,280.6 l 16.2,-16.3 c -117.3,-2.3 -234.7,-4.8 -352,-6.2 -117.4,-1.7 -234.8,-3.4 -352.1,-4.1 -117.4,-0.9 -234.8,-2.4 -352.1,-2.4 l -352.1,-1 30,30 -0.8,-284.2 c -0.2,-94.7 -0.5,-189.4 -1.5,-284.1 l -27.7,27.7 c 115.8,-1.2 231.4,-1.8 347.5,-3.9 116.2,-2.1 232.3,-3.5 349.5,-6.4 l 353,-8.2 358.3,-9.2 m 0,0 -345.8,-9.2 -351.1,-8.2 c -117.6,-2.9 -236.2,-4.3 -354.8,-6.5 -118.6,-2 -237.7,-2.6 -356.6,-3.8 l -27.4,-0.3 -0.3,28 c -1,94.7 -1.3,189.4 -1.5,284.1 l -0.8,284.2 -0.1,30 h 30.1 l 352.1,-1 c 117.3,0 234.7,-1.5 352.1,-2.4 117.3,-0.8 234.7,-2.4 352.1,-4.2 117.3,-1.4 234.7,-3.8 352,-6.2 l 16.6,-0.3 -0.3,-15.9 c -1.7,-96.7 -5,-192.8 -7.5,-287.8 l -8.8,-280.5"
         style="fill:#99bfaf;fill-opacity:1;fill-rule:nonzero;stroke:none"
         id="path50" />
      <path
         d="m 28253.6,9817.2 -8.7,194.1 c -2.6,66.1 -5.9,133.4 -7.6,201.2 l -0.4,15.8 16.7,0.5 c 81.6,2.3 163.3,4.8 244.9,6.2 81.6,1.7 163.3,3.4 244.9,4.1 81.7,0.9 163.3,2.4 245,2.5 l 244.9,0.9 30.1,0.1 -0.1,-30.1 -0.8,-197.6 c -0.2,-65.9 -0.5,-131.8 -1.5,-197.7 l -0.4,-28.1 -27.3,0.4 c -83.2,1.2 -166.6,1.8 -249.5,3.9 -82.8,2.1 -165.7,3.5 -247.6,6.4 l -122.5,3.9 -121.4,4.3 z m 0,0 251.1,9.2 246,8.2 c 81.4,2.9 161.8,4.3 242.2,6.5 80.4,2.1 160.4,2.6 240.4,3.8 l -27.7,-27.7 c -1,65.9 -1.3,131.8 -1.5,197.7 l -0.8,197.6 30,-29.9 -244.9,0.9 c -81.7,0.1 -163.3,1.6 -245,2.4 -81.6,0.8 -163.3,2.4 -244.9,4.2 -81.6,1.4 -163.3,3.9 -244.9,6.2 l 16.2,16.2 c -1.7,-63.9 -4.9,-128.4 -7.5,-194 l -4.5,-99.6 -4.2,-101.7"
         style="fill:#99bfaf;fill-opacity:1;fill-rule:nonzero;stroke:none"
         id="path52" />
      <path
         d="m 19383.4,10879.7 -5.5,195.3 c -1.8,66 -4.3,132.8 -5.4,200 l -0.1,10.6 11,0.2 c 81.6,1.6 163.3,3.2 244.9,4.1 81.6,1.2 163.3,2.3 244.9,2.8 81.7,0.6 163.3,1.6 245,1.6 l 244.9,0.7 h 20.1 l -0.1,-20 c -0.6,-131.8 -0.3,-263.6 -1.5,-395.3 l -0.2,-18.7 -18.3,0.2 c -82.7,0.8 -165.5,1.2 -248,2.6 -82.4,1.4 -164.9,2.3 -246.7,4.2 -81.9,1.7 -163.4,3.5 -244.1,5.7 l -240.9,6 m 0,0 494.6,11.6 c 81.5,1.9 162.4,2.8 243.2,4.3 80.8,1.3 161.3,1.7 241.9,2.5 l -18.5,-18.4 c -1.2,131.7 -0.9,263.5 -1.5,395.3 l 20,-20 -244.9,0.6 c -81.7,0.1 -163.3,1.1 -245,1.6 -81.6,0.6 -163.3,1.7 -244.9,2.8 -81.6,1 -163.3,2.6 -244.9,4.2 l 10.8,10.8 c -1.1,-64.6 -3.5,-129.6 -5.3,-195.4 l -5.5,-199.9"
         style="fill:#dd7f3a;fill-opacity:1;fill-rule:nonzero;stroke:none"
         id="path54" />
      <path
         d="m 25263.4,12782.2 -4.3,101.7 -4.5,99.6 c -2.5,65.6 -5.8,130.1 -7.5,194 l 16.3,-16.2 c -81.7,-2.4 -163.3,-4.8 -245,-6.2 -81.6,-1.8 -163.3,-3.4 -244.9,-4.2 -81.6,-0.9 -163.3,-2.4 -244.9,-2.4 l -245,-1 30,30 -0.8,-197.7 c -0.2,-65.8 -0.5,-131.7 -1.5,-197.6 l -27.7,27.7 c 80.1,-1.2 160,-1.8 240.4,-3.9 80.5,-2.1 160.9,-3.5 242.3,-6.4 l 245.9,-8.2 z m 0,0 -238.7,-9.2 -121.4,-4.4 -122.6,-3.8 c -81.9,-2.9 -164.8,-4.4 -247.6,-6.5 -82.9,-2.1 -166.2,-2.6 -249.5,-3.8 l -27.2,-0.4 -0.5,28.1 c -1,65.9 -1.2,131.8 -1.4,197.6 l -0.8,197.7 -0.2,30.1 30.1,-0.1 245,-1 c 81.6,0 163.3,-1.5 244.9,-2.4 81.6,-0.7 163.3,-2.4 244.9,-4.1 81.7,-1.4 163.3,-3.9 245,-6.2 l 16.6,-0.5 -0.4,-15.8 c -1.7,-67.8 -4.9,-135.1 -7.5,-201.3 l -8.7,-194"
         style="fill:#99bfaf;fill-opacity:1;fill-rule:nonzero;stroke:none"
         id="path56" />
      <path
         d="m 18954.8,9323 -4.3,101.8 -4.5,99.5 c -2.6,65.6 -5.8,130.2 -7.5,194.1 l 16.3,-16.3 c -81.7,-2.3 -163.3,-4.8 -245,-6.2 -81.6,-1.7 -163.3,-3.4 -244.9,-4.1 -81.7,-0.9 -163.3,-2.4 -244.9,-2.4 l -245,-1 30,30 -0.8,-197.7 c -0.2,-65.9 -0.5,-131.8 -1.5,-197.7 l -27.7,27.7 c 80.1,-1.1 160,-1.7 240.4,-3.8 80.5,-2.1 160.9,-3.5 242.3,-6.4 l 245.9,-8.3 251.2,-9.2 m 0,0 -238.7,-9.1 -121.4,-4.4 -122.6,-3.9 c -81.9,-2.9 -164.8,-4.3 -247.6,-6.4 -82.9,-2.1 -166.2,-2.7 -249.5,-3.9 l -27.2,-0.3 -0.5,28 c -1,65.9 -1.3,131.8 -1.5,197.7 l -0.8,197.7 -0.1,30.1 30.1,-0.1 245,-1 c 81.6,0 163.2,-1.5 244.9,-2.4 81.6,-0.8 163.3,-2.4 244.9,-4.2 81.7,-1.4 163.3,-3.8 245,-6.2 l 16.6,-0.4 -0.4,-15.8 c -1.7,-67.9 -5,-135.1 -7.5,-201.3 l -8.7,-194.1"
         style="fill:#99bfaf;fill-opacity:1;fill-rule:nonzero;stroke:none"
         id="path58" />
      <path
         d="M 29933.4,5791.3 H 17487.1 V 8022.5 H 29933.4 V 5791.3"
         style="fill:#8dc7ae;fill-opacity:1;fill-rule:nonzero;stroke:none"
         id="path60" />
      <g
         id="g62">
        <g
           id="g64"
           clip-path="url(#clipPath68)">
          <path
             d="m 18427.9,5414.9 h -215 v 3010.8 h 215 V 5414.9"
             style="fill:#daede6;fill-opacity:1;fill-rule:nonzero;stroke:none"
             id="path70" />
          <path
             d="m 19772,5414.9 h -215 v 3010.8 h 215 V 5414.9"
             style="fill:#daede6;fill-opacity:1;fill-rule:nonzero;stroke:none"
             id="path72" />
          <path
             d="m 21116.1,5414.9 h -215 v 3010.8 h 215 V 5414.9"
             style="fill:#daede6;fill-opacity:1;fill-rule:nonzero;stroke:none"
             id="path74" />
          <path
             d="m 22460.2,5414.9 h -215 v 3010.8 h 215 V 5414.9"
             style="fill:#ffffff;fill-opacity:1;fill-rule:nonzero;stroke:none"
             id="path76" />
          <path
             d="m 22265.2,5434.9 h 175 v 2970.8 h -175 z m 215,-40 h -255 v 3050.8 h 255 V 5394.9"
             style="fill:#000000;fill-opacity:1;fill-rule:nonzero;stroke:none"
             id="path78" />
          <path
             d="m 23804.3,5414.9 h -215 v 3010.8 h 215 V 5414.9"
             style="fill:#ffffff;fill-opacity:1;fill-rule:nonzero;stroke:none"
             id="path80" />
          <path
             d="m 23609.3,5434.9 h 175 v 2970.8 h -175 z m 215,-40 h -255 v 3050.8 h 255 V 5394.9"
             style="fill:#000000;fill-opacity:1;fill-rule:nonzero;stroke:none"
             id="path82" />
          <path
             d="m 25148.4,5414.9 h -215 v 3010.8 h 215 V 5414.9"
             style="fill:#ffffff;fill-opacity:1;fill-rule:nonzero;stroke:none"
             id="path84" />
          <path
             d="m 24953.4,5434.9 h 175 v 2970.8 h -175 z m 215,-40 h -255 v 3050.8 h 255 V 5394.9"
             style="fill:#000000;fill-opacity:1;fill-rule:nonzero;stroke:none"
             id="path86" />
          <path
             d="m 26492.5,5414.9 h -215 v 3010.8 h 215 V 5414.9"
             style="fill:#daede6;fill-opacity:1;fill-rule:nonzero;stroke:none"
             id="path88" />
          <path
             d="m 27836.6,5414.9 h -215.1 v 3010.8 h 215.1 V 5414.9"
             style="fill:#daede6;fill-opacity:1;fill-rule:nonzero;stroke:none"
             id="path90" />
          <path
             d="m 29180.7,5414.9 h -215.1 v 3010.8 h 215.1 V 5414.9"
             style="fill:#daede6;fill-opacity:1;fill-rule:nonzero;stroke:none"
             id="path92" />
        </g>
      </g>
      <path
         d="m 25387.3,7560.5 v -588.4 h -3729.5 v 588.4 h 3729.5"
         style="fill:#8f5733;fill-opacity:1;fill-rule:nonzero;stroke:none"
         id="path94" />
      <g
         id="g96">
        <g
           id="g98"
           clip-path="url(#clipPath102)">
          <path
             d="m 21281.6,6926.4 c 37.1,0 3595,210 3595,210 l 827.7,-185.3 -4422.7,-24.7"
             style="fill:#6d3b20;fill-opacity:1;fill-rule:nonzero;stroke:none"
             id="path104" />
        </g>
      </g>
      <path
         d="m 25387.3,7560.5 v -588.4 h -543.9 v 588.4 h 543.9"
         style="fill:#6d3b20;fill-opacity:1;fill-rule:nonzero;stroke:none"
         id="path106" />
      <path
         d="m 25540.6,7001.5 v -629.4 h -4120 v 629.4 h 4120"
         style="fill:#8f5733;fill-opacity:1;fill-rule:nonzero;stroke:none"
         id="path108" />
      <path
         d="m 25540.6,7001.5 v -629.4 h -600.9 v 629.4 h 600.9"
         style="fill:#6d3b20;fill-opacity:1;fill-rule:nonzero;stroke:none"
         id="path110" />
      <path
         d="M 25720.8,6391 V 5704.7 H 21188.9 V 6391 h 4531.9"
         style="fill:#8f5733;fill-opacity:1;fill-rule:nonzero;stroke:none"
         id="path112" />
      <g
         id="g114">
        <g
           id="g116"
           clip-path="url(#clipPath120)">
          <path
             d="m 20552.7,6432.2 4916.9,-271.8 543.6,321.2 z"
             style="fill:#6d3b20;fill-opacity:1;fill-rule:nonzero;stroke:none"
             id="path122" />
        </g>
      </g>
      <path
         d="m 25720.8,6391 v -686.3 h -660.9 V 6391 h 660.9"
         style="fill:#6d3b20;fill-opacity:1;fill-rule:nonzero;stroke:none"
         id="path124" />
      <path
         d="M 30109.1,7888.1 H 17177 c -6.9,0 -12.5,5.6 -12.5,12.5 v 432 c 0,6.9 5.6,12.5 12.5,12.5 h 12932.1 c 6.9,0 12.5,-5.6 12.5,-12.5 v -432 c 0,-6.9 -5.6,-12.5 -12.5,-12.5"
         style="fill:#daede6;fill-opacity:1;fill-rule:nonzero;stroke:none"
         id="path126" />
      <path
         d="m 25229.1,7565.5 h -3091.5 v 4865.6 h 3091.5 V 7565.5"
         style="fill:#6da090;fill-opacity:1;fill-rule:nonzero;stroke:none"
         id="path128" />
      <path
         d="m 24911.8,7888.1 h -2510.7 v 4220.4 h 2510.7 V 7888.1"
         style="fill:#7fb9a0;fill-opacity:1;fill-rule:nonzero;stroke:none"
         id="path130" />
      <path
         d="m 24557,9971.4 c 0,-96.5 -78.2,-174.7 -174.7,-174.7 -96.5,0 -174.8,78.2 -174.8,174.7 0,96.5 78.3,174.7 174.8,174.7 96.5,0 174.7,-78.2 174.7,-174.7"
         style="fill:#ffffff;fill-opacity:1;fill-rule:nonzero;stroke:none"
         id="path132" />
      <path
         d="m 18302.5,8694.5 h 2759.9 v 3924.8 h -2759.9 z"
         style="fill:#ffffff;fill-opacity:1;fill-rule:nonzero;stroke:none"
         id="path134" />
      <path
         d="m 20721.9,11454.4 v 788.5 h -2096.8 v -788.5 h 2096.8"
         style="fill:#8dc7ae;fill-opacity:1;fill-rule:nonzero;stroke:none"
         id="path136" />
      <path
         d="m 18625.1,9070.9 h 2096.8 v 1863.8 h -2096.8 z"
         style="fill:#8dc7ae;fill-opacity:1;fill-rule:nonzero;stroke:none"
         id="path138" />
      <g
         id="g140">
        <g
           id="g142"
           clip-path="url(#clipPath146)">
          <path
             d="m 18625.1,10038 v 896.7 h 560.1 l -560.1,-896.7"
             style="fill:#b0d8c7;fill-opacity:1;fill-rule:nonzero;stroke:none"
             id="path148" />
          <path
             d="m 18625.1,9385 v 153 l 872.5,1396.7 h 95.5 l -968,-1549.7"
             style="fill:#b0d8c7;fill-opacity:1;fill-rule:nonzero;stroke:none"
             id="path150" />
        </g>
      </g>
      <path
         d="m 26187.8,8694.5 h 2759.9 v 3924.8 h -2759.9 z"
         style="fill:#ffffff;fill-opacity:1;fill-rule:nonzero;stroke:none"
         id="path152" />
      <path
         d="m 28607.2,11454.4 v 788.5 h -2096.8 v -788.5 h 2096.8"
         style="fill:#8dc7ae;fill-opacity:1;fill-rule:nonzero;stroke:none"
         id="path154" />
      <path
         d="m 26510.4,9070.9 h 2096.8 v 1863.8 h -2096.8 z"
         style="fill:#8dc7ae;fill-opacity:1;fill-rule:nonzero;stroke:none"
         id="path156" />
      <g
         id="g158">
        <g
           id="g160"
           clip-path="url(#clipPath164)">
          <path
             d="M 26510.4,9120.4 V 9743 l 838.3,1191.7 h 438 L 26510.4,9120.4"
             style="fill:#b8dccd;fill-opacity:1;fill-rule:nonzero;stroke:none"
             id="path166" />
          <path
             d="m 27049.6,9070.9 h -211.5 l 1311.1,1863.8 h 211.5 L 27049.6,9070.9"
             style="fill:#b8dccd;fill-opacity:1;fill-rule:nonzero;stroke:none"
             id="path168" />
        </g>
      </g>
      <path
         d="m 23347.3,14151.5 v 1478.6 l -2177.4,-1505.4 2177.4,26.8"
         style="fill:#ffffff;fill-opacity:1;fill-rule:nonzero;stroke:none"
         id="path170" />
      <path
         d="m 23696.8,14178.4 v 1612.9 l 2715.1,-1639.8 -2715.1,26.9"
         style="fill:#ffffff;fill-opacity:1;fill-rule:nonzero;stroke:none"
         id="path172" />
      <path
         d="m 17352.7,11786.5 v 719.1 l 6344.1,3930.9 6263.5,-4081.5 v -336.3 l -1012.6,559.5 v 41.1 h -74.4 l -2700.7,1492.1 c 0.4,14.2 0.8,28.3 1.2,42.5 l 238.1,-2.4 -234.6,141.7 c 0.1,7 0.3,13.9 0.4,20.9 l 0.3,15.9 -16.6,0.3 c -15.7,0.3 -31.4,0.7 -47.1,1 l -2417.5,1460 v -795.7 l -349.5,-176.7 v 811.2 l -2177.4,-1505.4 825.2,10.1 -2965.4,-1500 c -40.1,0.4 -80.1,0.8 -120.1,1 -117.3,0.9 -234.7,2.4 -352.1,2.4 l -352,1 -30.1,0.1 0.1,-30.1 0.8,-284.1 c 0.1,-40.6 0.2,-81.2 0.3,-121.8 l -823.9,-416.8 m 881.7,446 c 0.1,30.9 0.2,61.7 0.2,92.6 l 0.7,254.2 67.2,0.2 v -312.6 l -68.1,-34.4"
         style="fill:#b4ae90;fill-opacity:1;fill-rule:nonzero;stroke:none"
         id="path174" />
      <path
         d="m 18176.6,12203.3 c -0.1,40.6 -0.2,81.2 -0.3,121.8 l -0.8,284.1 -0.1,30.1 30.1,-0.1 352,-1 c 117.4,0 234.8,-1.5 352.1,-2.4 40,-0.2 80,-0.6 120.1,-1 l -30.7,-15.5 h -696.5 v -39.8 l -67.2,-0.2 -0.7,-254.2 c 0,-30.9 -0.1,-61.7 -0.2,-92.6 l -57.8,-29.2"
         style="fill:#9c9b79;fill-opacity:1;fill-rule:nonzero;stroke:none"
         id="path176" />
      <path
         d="m 26150.1,14123.8 -55.8,30.9 54.9,-0.6 c 0.3,-10 0.6,-20.2 0.9,-30.3"
         style="fill:#b4ae90;fill-opacity:1;fill-rule:nonzero;stroke:none"
         id="path178" />
      <path
         d="m 26172.6,14111.4 -22.5,12.4 c -0.3,10.1 -0.6,20.3 -0.9,30.3 l 24.6,-0.2 c -0.4,-14.2 -0.8,-28.3 -1.2,-42.5 m 4.7,181.8 -63,38.1 c 15.7,-0.3 31.4,-0.7 47.1,-1 l 16.6,-0.3 -0.3,-15.9 c -0.1,-7 -0.3,-13.9 -0.4,-20.9"
         style="fill:#9c9b79;fill-opacity:1;fill-rule:nonzero;stroke:none"
         id="path180" />
      <path
         d="m 18302.5,12266.9 v 352.4 h 696.5 l -696.5,-352.4"
         style="fill:#dbc3ab;fill-opacity:1;fill-rule:nonzero;stroke:none"
         id="path182" />
      <path
         d="m 28947.7,12578.2 -74.4,41.1 h 74.4 v -41.1"
         style="fill:#dbc3ab;fill-opacity:1;fill-rule:nonzero;stroke:none"
         id="path184" />
      <path
         d="m 21169.9,14124.7 2177.4,1505.4 v -811.2 l -1352.2,-684.1 -825.2,-10.1"
         style="fill:#dbc3ab;fill-opacity:1;fill-rule:nonzero;stroke:none"
         id="path186" />
      <path
         d="m 26411.9,14151.5 -238.1,2.4 -24.6,0.2 -54.9,0.6 -1940.5,1072.1 -457,-231.2 v 795.7 l 2417.5,-1460 63,-38.1 234.6,-141.7"
         style="fill:#dbc3ab;fill-opacity:1;fill-rule:nonzero;stroke:none"
         id="path188" />
      <path
         d="m 31062.4,13156.9 -622,-767.2 -184.4,-227.4 -6559.2,4274.2 -6854.9,-4247.3 -262.4,319.9 -597.8,728.5 7069.9,4328 h 1532.3 l 6478.5,-4408.7"
         style="fill:#7fb9a0;fill-opacity:1;fill-rule:nonzero;stroke:none"
         id="path190" />
      <path
         d="m 30494.1,12443.5 -238.1,-281.2 -6559.2,4274.2 -6854.9,-4247.3 -208.6,266.1 7063.5,4303.8 6797.3,-4315.6"
         style="fill:#6da090;fill-opacity:1;fill-rule:nonzero;stroke:none"
         id="path192" />
      <path
         d="m 27195.8,5141.5 c -223.4,253.6 -713.7,642.6 -913.5,677.1 404.2,137.8 840.7,129.5 1221.3,-31.4 -108.7,409.1 -45.1,646.5 228.7,858.6 25.6,-243.5 188.5,-535.3 200.6,-775.5 206.8,460.4 552,844 1044.7,943.5 -229.7,-349.8 -172.8,-541.6 -237.2,-906.4 -33.3,-44.5 -35.5,-43.1 -6.4,4.2 248.2,385.7 628.4,598.9 1089.6,617 -213.2,-269.7 -251.9,-485.6 -398.8,-802.2 -28.3,-47.7 -30.5,-46.3 -6.4,4.3 331.9,241.8 758.4,389.5 1205.8,448.8 -257.7,-284.1 -414.1,-535.7 -539.3,-874.4 l -2889.1,-163.6"
         style="fill:#617934;fill-opacity:1;fill-rule:nonzero;stroke:none"
         id="path194" />
      <path
         d="M 19837.9,4965.1 15822,4933.3 17076,5346 Z"
         style="fill:#97b7aa;fill-opacity:1;fill-rule:nonzero;stroke:none"
         id="path196" />
      <path
         d="m 16605.4,5180.5 c -194,290.9 -643.1,757.6 -843.2,820.6 433.5,85.5 880,16.7 1248.1,-200.9 -54.9,434.6 43.1,669.3 353.2,848.9 -7.4,-253.2 119.3,-575 98.6,-823.1 275.7,443.7 682.7,789.4 1201.8,823.4 -283.9,-327 -252.1,-531.5 -368.5,-896.8 -40.3,-41 -42.4,-39.3 -6.1,5.2 307.9,361.3 727.2,527.4 1202.8,482.3 -256,-247.2 -325.4,-463.3 -519.8,-767.6 -35.7,-45.1 -37.7,-43.4 -6.1,5.2 373.8,202.2 831.6,294.7 1298.7,293.7 -303.5,-255.8 -498.7,-492.2 -673.8,-822.2 l -2985.7,231.3"
         style="fill:#92aa51;fill-opacity:1;fill-rule:nonzero;stroke:none"
         id="path198" />
      <path
         d="m 31409.3,4917.5 -4015.8,-31.8 1412.7,349.2 z"
         style="fill:#97b7aa;fill-opacity:1;fill-rule:nonzero;stroke:none"
         id="path200" />
      <path
         d="m 28538.1,5046.2 c -196.1,275.2 -643.9,712.5 -839.1,767.2 416.2,95.7 849.5,42.6 1211.6,-156.5 -66.1,418.1 21.5,647.8 315.6,830.6 0.5,-244.8 132.5,-551.8 120,-792 252.9,436.8 635.6,783 1136,831.3 -264.4,-324.3 -227.4,-520.9 -329,-877.2 -37.7,-40.9 -39.7,-39.2 -6,4.8 286.5,358.2 686.6,531.3 1147.3,502 -239.8,-246.5 -300.4,-457.2 -479,-757.1 -33.1,-44.6 -35.1,-42.9 -6,4.9 354.9,206.6 794.3,309.7 1245.5,322.7 -285.5,-256.1 -466.9,-490.4 -626.2,-814.4 l -2890.7,133.7"
         style="fill:#92aa51;fill-opacity:1;fill-rule:nonzero;stroke:none"
         id="path202" />
      <path
         d="m 31219.3,24245 c -459,357.3 -976.7,646 -1539.3,849.7 l -1326.8,480.5 c -200.8,135.5 -407.3,262.4 -619.5,380.6 367.2,294 833.1,469.8 1340.1,469.8 1185.1,0 2145.8,-960.7 2145.8,-2145.7 0,-11.6 -0.1,-23.3 -0.3,-34.9"
         style="fill:#dbc3ab;fill-opacity:1;fill-rule:nonzero;stroke:none"
         id="path204" />
      <path
         d="m 30821.6,23034.9 c -642.3,1010.1 -1484.1,1876.3 -2468.4,2540.3 l 1326.8,-480.5 c 562.6,-203.7 1080.3,-492.4 1539.3,-849.7 -7.2,-450.8 -153.4,-867.8 -397.7,-1210.1"
         style="fill:#d0bfa7;fill-opacity:1;fill-rule:nonzero;stroke:none"
         id="path206" />
      <path
         d="m 29073.8,22134.2 c -18.3,0 -36.6,0.2 -54.8,0.7 -100.8,202.4 -207.5,401.8 -320.4,597.7 -122.5,210.9 -251.9,417.8 -388.1,620.3 -377.9,557.2 -810.5,1077.8 -1290.6,1549.6 127.1,420 379.6,785.6 713.8,1053.3 212.2,-118.2 418.7,-245.1 619.5,-380.6 984.3,-664 1826.1,-1530.2 2468.4,-2540.3 -389.1,-545.2 -1026.9,-900.7 -1747.8,-900.7 m -96.4,2.1 c -1140.3,50.5 -2049.3,990.9 -2049.3,2143.6 0,202.5 28.1,398.4 80.5,584.1 40.4,-40 81.4,-79.5 120.4,-120.9 l 126.4,-131.4 c 41.5,-44.4 82.2,-89.6 123.3,-134.3 162.9,-180.4 320.9,-365.3 469.9,-557.4 18.7,-23.9 37.9,-47.5 56.2,-71.7 l 54.8,-72.9 54.8,-72.8 27.3,-36.4 26.6,-37.1 106.2,-148.1 102.9,-150.5 c 136,-201.4 265.6,-407.2 388.2,-617.1 109.6,-189.2 213.5,-381.7 311.8,-577.1"
         style="fill:#db9848;fill-opacity:1;fill-rule:nonzero;stroke:none"
         id="path208" />
      <path
         d="m 29019,22134.9 c -13.9,0.3 -27.8,0.8 -41.6,1.4 -98.3,195.4 -202.2,387.9 -311.8,577.1 -122.6,209.9 -252.2,415.7 -388.2,617.1 l -102.9,150.5 -106.2,148.1 -26.6,37.1 -27.3,36.4 -54.8,72.8 -54.8,72.9 c -18.3,24.2 -37.5,47.8 -56.2,71.7 -149,192.1 -307,377 -469.9,557.4 -41.1,44.7 -81.8,89.9 -123.3,134.3 l -126.4,131.4 c -39,41.4 -80,80.9 -120.4,120.9 3.6,12.9 7.4,25.7 11.3,38.5 480.1,-471.8 912.7,-992.4 1290.6,-1549.6 136.2,-202.5 265.6,-409.4 388.1,-620.3 112.9,-195.9 219.6,-395.3 320.4,-597.7"
         style="fill:#dbb488;fill-opacity:1;fill-rule:nonzero;stroke:none"
         id="path210" />
      <path
         d="m 17141.1,23960.9 c -9.2,80.8 -13.9,162.9 -13.9,246.1 0,1185.1 960.7,2145.8 2145.7,2145.8 272,0 532.2,-50.7 771.7,-143 -1120.8,-530.9 -2109.7,-1302.2 -2903.5,-2248.9"
         style="fill:#dbc3ab;fill-opacity:1;fill-rule:nonzero;stroke:none"
         id="path212" />
      <path
         d="m 19272.9,22061.3 c -256.8,0 -502.9,45.1 -731.2,127.8 90.4,177.3 185.3,352.2 285.1,524.3 122.6,209.9 252.2,415.7 388.2,617.1 l 102.9,150.5 106.2,148.1 26.5,37.1 27.4,36.4 54.8,72.8 54.8,72.9 c 18.3,24.2 37.5,47.8 56.2,71.7 149,192.1 307,377 469.9,557.4 41.1,44.7 81.8,89.9 123.3,134.3 l 126.4,131.4 c 41.6,44.2 85.5,86.3 128.6,129.1 l 64.9,64.1 c 10.8,10.6 21.5,21.4 32.5,32 l 33.2,31.1 132.9,124.8 c 22,21.1 45.1,40.8 67.7,61.1 l 67.9,60.8 68,60.8 c 22.6,20.3 46.2,39.5 69.2,59.3 l 32.5,27.6 c 226.1,-339.9 357.8,-747.9 357.8,-1186.8 0,-1185 -960.7,-2145.7 -2145.7,-2145.7 m -765.8,140.7 c -733.5,280.3 -1273.7,951.6 -1366,1758.9 793.8,946.7 1782.7,1718 2903.5,2248.9 407.2,-157 754.5,-434.6 998,-789.1 -712.2,-598.2 -1338.6,-1297.9 -1860.7,-2067.8 -136.2,-202.5 -265.6,-409.4 -388.1,-620.3 -100.4,-174.2 -195.9,-351.2 -286.7,-530.6"
         style="fill:#db9848;fill-opacity:1;fill-rule:nonzero;stroke:none"
         id="path214" />
      <path
         d="m 18541.7,22189.1 c -11.5,4.2 -23.1,8.5 -34.6,12.9 90.8,179.4 186.3,356.4 286.7,530.6 122.5,210.9 251.9,417.8 388.1,620.3 522.1,769.9 1148.5,1469.6 1860.7,2067.8 6.1,-8.9 12.2,-17.9 18.2,-26.9 l -32.5,-27.6 c -23,-19.8 -46.6,-39 -69.2,-59.3 l -68,-60.8 -67.9,-60.8 c -22.6,-20.3 -45.7,-40 -67.7,-61.1 l -132.9,-124.8 -33.2,-31.1 c -11,-10.6 -21.7,-21.4 -32.5,-32 l -64.9,-64.1 c -43.1,-42.8 -87,-84.9 -128.6,-129.1 l -126.4,-131.4 c -41.5,-44.4 -82.2,-89.6 -123.3,-134.3 -162.9,-180.4 -320.9,-365.3 -469.9,-557.4 -18.7,-23.9 -37.9,-47.5 -56.2,-71.7 l -54.8,-72.9 -54.8,-72.8 -27.4,-36.4 -26.5,-37.1 -106.2,-148.1 -102.9,-150.5 c -136,-201.4 -265.6,-407.2 -388.2,-617.1 -99.8,-172.1 -194.7,-347 -285.1,-524.3"
         style="fill:#dbb488;fill-opacity:1;fill-rule:nonzero;stroke:none"
         id="path216" />
      <path
         d="m 31626.8,13025.9 c -8,0 -15.9,2.1 -15.9,6.3 -806.4,301.7 -1424.6,702 -1897.8,1158.2 l 106.6,662.5 c 493.5,-534.6 1166.7,-1004.3 2082.6,-1347.1 0,-4.1 8,-6.2 16,-6.2 7.9,0 15.9,2.1 15.9,6.2 1171.7,438.5 1946.4,1085.2 2455.7,1809.1 -487.7,-911.6 -1324.9,-1750.5 -2747.2,-2282.7 0,-4.2 -8,-6.3 -15.9,-6.3 m -3039.7,4538 -351.1,51.7 c -36.4,465.2 -29.3,895.6 -14.4,1255.1 91.2,18.6 184.6,29.7 279.8,32.4 -3.7,-402.5 13.4,-860 85.7,-1339.2"
         style="fill:#d0bfa7;fill-opacity:1;fill-rule:nonzero;stroke:none"
         id="path218" />
      <path
         d="m 28221.6,18870.7 c 13.1,318.6 32.2,581.8 32.2,764.5 90,-30.3 179.8,-54.9 269.2,-74.5 -9.7,-194.2 -19.4,-416 -21.6,-657.6 -95.2,-2.7 -188.6,-13.8 -279.8,-32.4"
         style="fill:#db9848;fill-opacity:1;fill-rule:nonzero;stroke:none"
         id="path220" />
      <path
         d="m 29713.1,14190.4 c -688.1,663.4 -1069.2,1445.2 -1275.5,2214.3 l 591,-361.4 c 190.6,-414.1 447.4,-818 791.1,-1190.4 l -106.6,-662.5"
         style="fill:#808866;fill-opacity:1;fill-rule:nonzero;stroke:none"
         id="path222" />
      <path
         d="m 29028.6,16043.3 -591,361.4 c -16.3,60.9 -31.6,121.9 -45.8,182.6 l 445.9,-65.7 c 54.8,-160.2 118,-320 190.9,-478.3"
         style="fill:#8c9870;fill-opacity:1;fill-rule:nonzero;stroke:none"
         id="path224" />
      <path
         d="m 28837.7,16521.6 -445.9,65.7 c -82.4,352 -130,698.7 -155.8,1028.3 l 351.1,-51.7 c 51.5,-340.8 130.8,-692.4 250.6,-1042.3"
         style="fill:#808866;fill-opacity:1;fill-rule:nonzero;stroke:none"
         id="path226" />
      <path
         d="m 17820.3,10706.5 h -3716.6 v 5331.8 h 3716.6 v -5331.8"
         style="fill:#116d96;fill-opacity:1;fill-rule:nonzero;stroke:none"
         id="path228" />
      <path
         d="m 14310.2,15807.6 v -4906.8 h 2611.3 c 0,0 121.4,522.2 704.4,789.4 v 4117.4 h -3315.7"
         style="fill:#ffe2c0;fill-opacity:1;fill-rule:nonzero;stroke:none"
         id="path230" />
      <path
         d="M 15658.4,14283.3 V 13670 l 279.3,139.6 291.5,-139.6 v 637.6 l -570.8,-24.3"
         style="fill:#d64e37;fill-opacity:1;fill-rule:nonzero;stroke:none"
         id="path232" />
      <path
         d="m 16557.1,14702.3 c 0,-335.4 -271.9,-607.2 -607.2,-607.2 -335.4,0 -607.3,271.8 -607.3,607.2 0,335.4 271.9,607.3 607.3,607.3 335.3,0 607.2,-271.9 607.2,-607.3"
         style="fill:#ffba5f;fill-opacity:1;fill-rule:nonzero;stroke:none"
         id="path234" />
      <path
         d="m 16381,14696.3 c -0.3,56.4 -11.7,112.7 -33.5,164.7 -21.9,51.9 -54.7,99 -94.8,138.2 -40.2,39 -88.5,69.4 -140.3,89.5 -51.8,20.2 -107.4,29.8 -162.5,28.7 -55.2,-1.4 -109.8,-13.4 -159.8,-35.5 -50,-22 -95.1,-54.2 -132.9,-93 -75.7,-77.8 -119.1,-184.8 -118.5,-292.6 -0.7,-107.9 42.7,-215 118.4,-292.8 37.8,-38.9 82.9,-71 133,-92.9 50,-22.1 104.6,-34.2 159.8,-35.6 55.1,-1.1 110.7,8.5 162.5,28.7 51.8,20.2 100.1,50.5 140.4,89.6 40,39.2 72.8,86.3 94.7,138.3 21.8,51.9 33.2,108.2 33.5,164.7 z m 0,0 c 0.7,-113.1 -44.9,-225.5 -124.3,-306.9 -39.6,-40.7 -87,-74.3 -139.5,-97.2 -52.4,-23.1 -109.6,-35.7 -167.3,-37.1 -57.8,-1.1 -116,9 -170.3,30.2 -54.2,21.2 -104.6,53 -146.8,93.9 -41.9,41.1 -76.1,90.3 -99,144.7 -22.9,54.4 -34.7,113.3 -35.1,172.4 0.3,59 12.2,118 35,172.3 22.9,54.4 57.2,103.7 99.1,144.7 42,41 92.6,72.8 146.8,94 54.3,21.2 112.5,31.3 170.3,30.2 57.7,-1.4 114.9,-14 167.4,-37.1 52.5,-23 99.8,-56.6 139.4,-97.3 79.4,-81.4 125,-193.8 124.3,-306.8"
         style="fill:#ff9739;fill-opacity:1;fill-rule:nonzero;stroke:none"
         id="path236" />
      <path
         d="m 14662.4,12941.2 275.3,-218.6 396.8,583 c 0,0 -267.2,-64.8 -421.1,-356.3 -129.5,48.6 -251,-8.1 -251,-8.1"
         style="fill:#d64e37;fill-opacity:1;fill-rule:nonzero;stroke:none"
         id="path238" />
      <path
         d="m 14662.4,11945.3 275.3,-218.6 396.8,583 c 0,0 -267.2,-64.8 -421.1,-356.3 -129.5,48.6 -251,-8.1 -251,-8.1"
         style="fill:#d64e37;fill-opacity:1;fill-rule:nonzero;stroke:none"
         id="path240" />
      <path
         d="m 16493.5,13216.5 h -844.4 c -8.3,0 -15,6.8 -15,15 v 42.9 c 0,8.3 6.7,15 15,15 h 844.4 c 8.3,0 15,-6.7 15,-15 v -42.9 c 0,-8.2 -6.7,-15 -15,-15"
         style="fill:#ffcf9f;fill-opacity:1;fill-rule:nonzero;stroke:none"
         id="path242" />
      <path
         d="m 17117,12941.2 h -1467.9 c -8.3,0 -15,6.8 -15,15 v 59.1 c 0,8.2 6.7,15 15,15 H 17117 c 8.3,0 15,-6.8 15,-15 v -59.1 c 0,-8.2 -6.7,-15 -15,-15"
         style="fill:#ffcf9f;fill-opacity:1;fill-rule:nonzero;stroke:none"
         id="path244" />
      <path
         d="m 16493.5,12665.9 h -844.4 c -8.3,0 -15,6.8 -15,15 v 42.9 c 0,8.3 6.7,15 15,15 h 844.4 c 8.3,0 15,-6.7 15,-15 v -42.9 c 0,-8.2 -6.7,-15 -15,-15"
         style="fill:#ffffff;fill-opacity:1;fill-rule:nonzero;stroke:none"
         id="path246" />
      <path
         d="m 17261.6,13202.4 h -592.1 c -11.7,0 -21.3,9.5 -21.3,21.2 v 60.7 c 0,11.7 9.6,21.3 21.3,21.3 h 592.1 c 11.7,0 21.2,-9.6 21.2,-21.3 v -60.7 c 0,-11.7 -9.5,-21.2 -21.2,-21.2"
         style="fill:#ffffff;fill-opacity:1;fill-rule:nonzero;stroke:none"
         id="path248" />
      <path
         d="m 16473.3,12265.1 h -844.5 c -8.2,0 -15,6.8 -15,15 v 42.9 c 0,8.3 6.8,15 15,15 h 844.5 c 8.3,0 15,-6.7 15,-15 v -42.9 c 0,-8.2 -6.7,-15 -15,-15"
         style="fill:#ffffff;fill-opacity:1;fill-rule:nonzero;stroke:none"
         id="path250" />
      <path
         d="m 17096.8,11989.8 h -1468 c -8.2,0 -15,6.8 -15,15 v 59.1 c 0,8.2 6.8,15 15,15 h 1468 c 8.2,0 15,-6.8 15,-15 v -59.1 c 0,-8.2 -6.8,-15 -15,-15"
         style="fill:#ffffff;fill-opacity:1;fill-rule:nonzero;stroke:none"
         id="path252" />
      <path
         d="m 16473.3,11714.5 h -844.5 c -8.2,0 -15,6.8 -15,15 v 42.9 c 0,8.3 6.8,15 15,15 h 844.5 c 8.3,0 15,-6.7 15,-15 v -42.9 c 0,-8.2 -6.7,-15 -15,-15"
         style="fill:#ffcf9f;fill-opacity:1;fill-rule:nonzero;stroke:none"
         id="path254" />
      <path
         d="m 17241.3,12251 h -592.1 c -11.7,0 -21.2,9.5 -21.2,21.2 v 60.7 c 0,11.7 9.5,21.3 21.2,21.3 h 592.1 c 11.7,0 21.3,-9.6 21.3,-21.3 v -60.7 c 0,-11.7 -9.6,-21.2 -21.3,-21.2"
         style="fill:#ffcf9f;fill-opacity:1;fill-rule:nonzero;stroke:none"
         id="path256" />
      <path
         d="m 16001.5,16123.4 c -169.4,0 -306.7,137.3 -306.7,306.6 0,169.4 137.3,306.7 306.7,306.7 169.3,0 306.6,-137.3 306.6,-306.7 0,-169.3 -137.3,-306.6 -306.6,-306.6 z m 853.2,255 h -411 c 2.4,19 4.1,38.1 4.1,57.7 0,249.9 -202.5,452.4 -452.4,452.4 -249.9,0 -452.4,-202.5 -452.4,-452.4 0,-19.6 1.6,-38.7 4.1,-57.7 h -526.4 c -56.8,0 -103.2,-46.4 -103.2,-103.2 v -400.8 c 0,-56.8 46.4,-103.3 103.2,-103.3 h 1834 c 56.8,0 103.2,46.5 103.2,103.3 v 400.8 c 0,56.8 -46.4,103.2 -103.2,103.2"
         style="fill:#6da090;fill-opacity:1;fill-rule:nonzero;stroke:none"
         id="path258" />
      <path
         d="m 35291.2,20108.8 c -1602.1,-538.8 -3141.5,704.8 -3359.7,891 0,15.1 -26.5,15.1 -26.5,0 -218.2,-186.2 -1757.6,-1429.8 -3359.7,-891 0,-1096.3 -688,-5089.3 3357,-6603 0,-8.3 31.9,-8.3 31.9,0 4045.1,1513.7 3357,5506.7 3357,6603"
         style="fill:#116d96;fill-opacity:1;fill-rule:nonzero;stroke:none"
         id="path260" />
      <path
         d="m 31932.1,14004.1 c 0,-7.1 -27.7,-7.1 -27.7,0 -192.3,71.9 -372.8,150.3 -541.9,234.6 -279.6,139.2 -528.3,293.7 -749.6,460.3 -147.5,111 -282.5,227.4 -406.4,348.1 -417.1,405.9 -707.6,860.6 -909.2,1325.6 -587.1,1354 -419,2793.2 -419,3355.3 1389.2,-467.4 2839.3,612.6 3028.3,774.2 0,13.1 23.1,13.1 23.1,0 47.6,-40.6 174.9,-140 361.2,-258.7 338.1,-215.5 870.4,-494.8 1469.9,-601 208.9,-37.2 425.8,-53 645.9,-38.1 h 0.2 c 184.9,12.8 371.4,47.3 557,109.8 0,-182.7 17.5,-457.7 21.1,-791.7 14.6,-1404.8 -219.3,-3857.9 -3052.9,-4918.4"
         style="fill:#ffe2c0;fill-opacity:1;fill-rule:nonzero;stroke:none"
         id="path262" />
      <path
         d="m 31396.6,18527.9 c 0,173.2 189.7,431.4 363,431.4 h 362.9 c 239.7,0 417.7,-265 417.7,-438.2 v -712.2 h -1140.8 l -2.8,719 m 1520.2,-719 h -136.9 v 630 c 0,406.7 -332.8,739.5 -739.6,739.5 h -150.6 c -406.8,0 -739.6,-332.8 -739.6,-739.5 v -630 h -109.5 c -67.8,0 -123.3,-55.5 -123.3,-123.3 v -1800.9 c 0,-67.8 55.5,-123.2 123.3,-123.2 h 1876.2 c 67.8,0 123.3,55.4 123.3,123.2 v 1800.9 c 0,67.8 -55.5,123.3 -123.3,123.3"
         style="fill:#d64e37;fill-opacity:1;fill-rule:nonzero;stroke:none"
         id="path264" />
      <path
         d="m 32086.1,16832.2 c 0.2,3.1 0.4,6.3 0.4,9.5 v 241.4 c 0,67.8 -55.4,123.2 -123.2,123.2 -67.8,0 -123.3,-55.4 -123.3,-123.2 v -241.4 c 0,-4.3 0.3,-8.5 0.7,-12.7 -59.3,-40.2 -98.3,-108 -98.3,-185 0,-123.4 100.1,-223.4 223.4,-223.4 123.4,0 223.5,100 223.5,223.4 0,79.1 -41.2,148.5 -103.2,188.2"
         style="fill:#ffffff;fill-opacity:1;fill-rule:nonzero;stroke:none"
         id="path266" />
      <g
         id="g268">
        <g
           id="g270"
           clip-path="url(#clipPath274)">
          <path
             d="m 29297.3,15047.1 h 4463.5 v 5196.4 h -4463.5 z"
             style="fill:#ffebd4;fill-opacity:1;fill-rule:nonzero;stroke:none"
             id="path276" />
        </g>
      </g>
      <path
         d="m 30917.3,15966.2 v 1719.4 c 0,67.8 55.5,123.3 123.3,123.3 h 109.5 v 630 c 0,406.7 332.8,739.5 739.6,739.5 h 150.6 c 406.8,0 739.6,-332.8 739.6,-739.5 v -64.6 l -239.7,-309.9 v 456.7 c 0,173.2 -178,438.2 -417.7,438.2 h -362.9 c -173.3,0 -363,-258.2 -363,-431.4 l 2.8,-719 h 943.2 l -1425.3,-1842.7"
         style="fill:#e38575;fill-opacity:1;fill-rule:nonzero;stroke:none"
         id="path278" />
      <path
         d="m 31362.5,14238.7 v 0 c -279.6,139.2 -528.3,293.7 -749.6,460.3 l 821.7,1062.5 h 1105.6 l -1177.7,-1522.8 m 1677.6,2169 v 1277.9 c 0,37.9 -17.3,71.8 -44.3,94.5 l 1410.9,1824.3 h 0.2 c 184.9,12.8 371.4,47.3 557,109.8 0,-182.7 17.5,-457.7 21.1,-791.7 l -1944.9,-2514.8"
         style="fill:#ffebd4;fill-opacity:1;fill-rule:nonzero;stroke:none"
         id="path280" />
      <path
         d="m 32540.2,15761.5 h -1105.6 l 510.5,660 c 6.8,-0.6 13.7,-0.9 20.7,-0.9 123.4,0 223.5,100 223.5,223.4 0,26.7 -4.7,52.3 -13.4,76.1 l 819.9,1060 c 27,-22.7 44.3,-56.6 44.3,-94.5 v -1277.9 l -499.9,-646.2"
         style="fill:#e38575;fill-opacity:1;fill-rule:nonzero;stroke:none"
         id="path282" />
      <path
         d="m 31965.8,16420.6 c -7,0 -13.9,0.3 -20.7,0.9 l 230.8,298.6 c 8.7,-23.8 13.4,-49.4 13.4,-76.1 0,-123.4 -100.1,-223.4 -223.5,-223.4"
         style="fill:#ffffff;fill-opacity:1;fill-rule:nonzero;stroke:none"
         id="path284" />
      <path
         d="m 31577.1,24722.4 c 0,-1185.1 -960.7,-2145.7 -2145.7,-2145.7 -1185.1,0 -2145.7,960.6 -2145.7,2145.7 0,1185 960.6,2145.7 2145.7,2145.7 1185,0 2145.7,-960.7 2145.7,-2145.7"
         style="fill:#116d96;fill-opacity:1;fill-rule:nonzero;stroke:none"
         id="path286" />
      <path
         d="m 31334.1,24714.4 c 0,-33.1 -0.7,-66.1 -2.4,-98.6 -10.5,-204.3 -53.5,-400.1 -123.7,-582.3 -273.5,-710 -962.1,-1213.8 -1768.6,-1213.8 -807.2,0 -1496.3,504.7 -1769.4,1216 -59,153.3 -98.3,316.2 -115.6,485.8 -6.3,63.4 -9.7,127.8 -9.7,192.9 0,1046.2 848.5,1894.7 1894.7,1894.7 1046.5,0 1894.7,-848.5 1894.7,-1894.7"
         style="fill:#ffe2c0;fill-opacity:1;fill-rule:nonzero;stroke:none"
         id="path288" />
      <path
         d="m 31331.7,24615.8 c -51.5,-1000.6 -878.9,-1796.1 -1892.3,-1796.1 -981.1,0 -1788.3,746 -1885,1701.8 106.7,66.6 237.6,95.2 361.2,70.9 249.5,-48.8 463,-285.1 712.2,-234.9 197.8,39.9 328.5,251 527.2,284.5 252.6,42.5 473.6,-218.6 729.2,-201.1 138.9,9.4 257,99.8 375,174.1 118.1,74.4 264.1,136.5 393.8,84.8 100.5,-40.1 170.3,-142.4 275.7,-167.9 132.6,-32.2 273.3,67.8 403,83.9"
         style="fill:#8dc7ae;fill-opacity:1;fill-rule:nonzero;stroke:none"
         id="path290" />
      <path
         d="m 31208,24033.5 c -273.5,-710 -962.1,-1213.8 -1768.6,-1213.8 -807.2,0 -1496.3,504.7 -1769.4,1216 77.3,51.5 176.9,76.5 270.6,72.6 162.1,-6.5 312.9,-78.2 463.8,-138 150.6,-59.7 315.7,-109 472.9,-69.7 127.3,31.8 233.2,118.3 354.2,168.8 201.8,84.6 445.5,61 627.4,-60.4 80.7,-54 150.6,-126.1 240.2,-163.8 134.4,-56.1 289.8,-24.3 423.9,32.1 134.1,56.6 258,137 396.5,182.4 75.7,24.8 160.3,38.4 233.9,7.6 19.9,-8.3 38.4,-19.7 54.6,-33.8"
         style="fill:#c0ded3;fill-opacity:1;fill-rule:nonzero;stroke:none"
         id="path292" />
      <path
         d="m 28694.6,23540.2 c 0,-31.3 -25.4,-56.7 -56.7,-56.7 -31.3,0 -56.7,25.4 -56.7,56.7 0,31.3 25.4,56.7 56.7,56.7 31.3,0 56.7,-25.4 56.7,-56.7"
         style="fill:#8dc7ae;fill-opacity:1;fill-rule:nonzero;stroke:none"
         id="path294" />
      <path
         d="m 29471.9,23702.2 c 0,-67.1 -54.4,-121.5 -121.5,-121.5 -67.1,0 -121.4,54.4 -121.4,121.5 0,67.1 54.3,121.4 121.4,121.4 67.1,0 121.5,-54.3 121.5,-121.4"
         style="fill:#8dc7ae;fill-opacity:1;fill-rule:nonzero;stroke:none"
         id="path296" />
      <path
         d="m 29957.7,23515.9 c 0,-35.7 -29,-64.7 -64.8,-64.7 -35.8,0 -64.8,29 -64.8,64.7 0,35.8 29,64.8 64.8,64.8 35.8,0 64.8,-29 64.8,-64.8"
         style="fill:#8dc7ae;fill-opacity:1;fill-rule:nonzero;stroke:none"
         id="path298" />
      <path
         d="m 29990.1,25086.8 c 0,-44.8 -36.3,-81 -81,-81 -44.7,0 -81,36.2 -81,81 0,44.7 36.3,80.9 81,80.9 44.7,0 81,-36.2 81,-80.9"
         style="fill:#8dc7ae;fill-opacity:1;fill-rule:nonzero;stroke:none"
         id="path300" />
      <path
         d="m 29471.9,23224.4 c 0,-44.7 -36.3,-80.9 -81,-80.9 -44.7,0 -81,36.2 -81,80.9 0,44.8 36.3,81 81,81 44.7,0 81,-36.2 81,-81"
         style="fill:#8dc7ae;fill-opacity:1;fill-rule:nonzero;stroke:none"
         id="path302" />
      <path
         d="m 21117.6,24536.2 c 0,-1185.1 -960.7,-2145.8 -2145.7,-2145.8 -1185.1,0 -2145.7,960.7 -2145.7,2145.8 0,1185 960.6,2145.7 2145.7,2145.7 1185,0 2145.7,-960.7 2145.7,-2145.7"
         style="fill:#116d96;fill-opacity:1;fill-rule:nonzero;stroke:none"
         id="path304" />
      <path
         d="m 20874.6,24528.1 c 0,-33 -0.7,-66 -2.4,-98.6 -10.5,-204.3 -53.5,-400.1 -123.7,-582.2 -273.5,-710.1 -962.1,-1213.9 -1768.6,-1213.9 -807.2,0 -1496.3,504.8 -1769.4,1216 -59,153.3 -98.3,316.3 -115.6,485.9 -6.3,63.4 -9.7,127.7 -9.7,192.8 0,1046.3 848.5,1894.7 1894.7,1894.7 1046.5,0 1894.7,-848.4 1894.7,-1894.7"
         style="fill:#ffe2c0;fill-opacity:1;fill-rule:nonzero;stroke:none"
         id="path306" />
      <path
         d="m 17929.6,24224.4 c 0,0 -145.8,-1712.5 1153.8,-1554.6 1299.6,157.9 1105.2,1068.8 1008.1,1226.7 -97.2,157.9 -267.2,303.6 -242.9,461.5 24.3,157.9 -291.5,-595.1 -291.5,-595.1 0,0 352.2,546.5 48.6,983.8 -303.7,437.2 -522.3,862.3 -437.3,1008.1 85,145.7 133.6,267.2 133.6,267.2 0,0 -619.4,-109.3 -643.7,-607.3 -24.3,-498 194.3,-1323.9 -133.6,-1421 -327.9,-97.2 -595.1,230.7 -595.1,230.7"
         style="fill:#d64e37;fill-opacity:1;fill-rule:nonzero;stroke:none"
         id="path308" />
      <path
         d="m 18362.8,22803.4 c -132.8,123 -323.9,437.2 -242.9,1004 663.9,-287.4 805.6,-68.8 842,307.7 36.5,376.5 -315.7,850.2 -12.1,1433.2 72.9,-546.6 558.7,-801.6 522.3,-1238.9 -36.5,-437.2 -631.6,-1080.9 -243,-1044.5 388.7,36.5 498,364.4 498,364.4 0,0 252.7,-922.8 -797.5,-987.9 -206.5,-12.7 -415.1,21.4 -566.8,162"
         style="fill:#ffba5f;fill-opacity:1;fill-rule:nonzero;stroke:none"
         id="path310" />
    </g>
  </g>
</svg>
